<?xml version="1.0" encoding="UTF-8" standalone="no"?>
<svg width="32px" height="29px" viewBox="0 0 32 29" version="1.1" xmlns="http://www.w3.org/2000/svg" xmlns:xlink="http://www.w3.org/1999/xlink" xmlns:sketch="http://www.bohemiancoding.com/sketch/ns">
    <!-- Generator: Sketch 3.3.3 (12081) - http://www.bohemiancoding.com/sketch -->
    <title>home icon</title>
    <desc>Created with Sketch.</desc>
    <defs></defs>
    <g id="Welcome" stroke="none" stroke-width="1" fill="none" fill-rule="evenodd" sketch:type="MSPage">
        <g id="icon" sketch:type="MSArtboardGroup" transform="translate(-373.000000, -11.000000)">
            <g id="home-icon" sketch:type="MSLayerGroup" transform="translate(373.000000, 9.000000)">
                <g id="home-+-directory" sketch:type="MSShapeGroup">
                    <rect id="矩形-171" x="0" y="0" width="16" height="16"></rect>
                    <rect id="矩形-171-copy" x="16" y="0" width="16" height="16"></rect>
                    <path d="M15.6388614,8.49005774 L8.86941822,2.32690549 C8.59970715,2.08137816 8.23399721,1.97456683 7.88047761,2.00508435 C7.60695706,2.02797249 7.33953167,2.13617098 7.12848657,2.32690549 L0.360567136,8.49005774 C-0.120189045,8.92701316 -0.120189045,9.63723912 0.360567136,10.0748881 C0.841323318,10.5118436 1.61921882,10.5118436 2.099975,10.0748881 L7.99933334,4.70380429 L13.8979298,10.0748881 C14.3794479,10.5118436 15.1581053,10.5118436 15.6388614,10.0748881 C16.1203795,9.63723912 16.1203795,8.92701316 15.6388614,8.49005774 Z M2.46187545,10.7552901 L2.46187545,13.8798682 C2.46187545,14.4992352 3.01120225,15 3.692337,15 L6.39249533,15 L6.39249533,11.8837449 C6.39249533,11.2650715 6.9448697,10.7643067 7.62371877,10.7643067 L8.45418507,10.7643067 C9.13531982,10.7643067 9.68464661,11.2650715 9.68464661,11.8837449 L9.68464661,15 L12.3078535,15 C12.9882263,15 13.538315,14.4992352 13.538315,13.8798682 L13.538315,10.7552901 L7.99933334,5.71365683 L2.46187545,10.7552901 Z" id="home" fill="#4A4A4A"></path>
                    <path d="M18,3 L32,3 L32,5.28280124 L18,5.28280124 L18,3 Z M18,7.85899995 L32,7.85899995 L32,10.1418012 L18,10.1418012 L18,7.85899995 Z M18,12.7171988 L32,12.7171988 L32,15 L18,15 L18,12.7171988 Z" id="directory" fill="#4A4A4A"></path>
                </g>
                <rect id="矩形-171-copy-2" sketch:type="MSShapeGroup" x="0" y="16" width="16" height="16"></rect>
                <rect id="矩形-171-copy-3" sketch:type="MSShapeGroup" x="16" y="16" width="16" height="16"></rect>
                <g id="home-+-directory-copy" transform="translate(0.000000, 18.000000)" fill="#E13627" sketch:type="MSShapeGroup">
                    <path d="M15.6388614,6.49005774 L8.86941822,0.326905491 C8.59970715,0.0813781569 8.23399721,-0.0254331694 7.88047761,0.00508435241 C7.60695706,0.0279724938 7.33953167,0.13617098 7.12848657,0.326905491 L0.360567136,6.49005774 C-0.120189045,6.92701316 -0.120189045,7.63723912 0.360567136,8.07488813 C0.841323318,8.51184355 1.61921882,8.51184355 2.099975,8.07488813 L7.99933334,2.70380429 L13.8979298,8.07488813 C14.3794479,8.51184355 15.1581053,8.51184355 15.6388614,8.07488813 C16.1203795,7.63723912 16.1203795,6.92701316 15.6388614,6.49005774 Z M2.46187545,8.75529015 L2.46187545,11.8798682 C2.46187545,12.4992352 3.01120225,13 3.692337,13 L6.39249533,13 L6.39249533,9.88374488 C6.39249533,9.26507148 6.9448697,8.76430669 7.62371877,8.76430669 L8.45418507,8.76430669 C9.13531982,8.76430669 9.68464661,9.26507148 9.68464661,9.88374488 L9.68464661,13 L12.3078535,13 C12.9882263,13 13.538315,12.4992352 13.538315,11.8798682 L13.538315,8.75529015 L7.99933334,3.71365683 L2.46187545,8.75529015 Z" id="home"></path>
                    <path d="M18,1 L32,1 L32,3.28280124 L18,3.28280124 L18,1 Z M18,5.85899995 L32,5.85899995 L32,8.1418012 L18,8.1418012 L18,5.85899995 Z M18,10.7171988 L32,10.7171988 L32,13 L18,13 L18,10.7171988 Z" id="directory"></path>
                </g>
            </g>
        </g>
    </g>
</svg>